<?xml version="1.0" encoding="UTF-8"?>
<!DOCTYPE svg PUBLIC "-//W3C//DTD SVG 1.1//EN" "http://www.w3.org/Graphics/SVG/1.1/DTD/svg11.dtd">
<!-- Creator: CorelDRAW X5 -->
<svg xmlns="http://www.w3.org/2000/svg" xml:space="preserve" width="55mm" height="60mm" style="shape-rendering:geometricPrecision; text-rendering:geometricPrecision; image-rendering:optimizeQuality; fill-rule:evenodd; clip-rule:evenodd"
viewBox="0 0 5500 6000"
 xmlns:xlink="http://www.w3.org/1999/xlink"
 xmlns:dc="http://purl.org/dc/elements/1.1/"
 xmlns:cc="http://creativecommons.org/ns#"
 xmlns:rdf="http://www.w3.org/1999/02/22-rdf-syntax-ns#"
 xmlns:svg="http://www.w3.org/2000/svg"
 xmlns:sodipodi="http://sodipodi.sourceforge.net/DTD/sodipodi-0.dtd"
 xmlns:inkscape="http://www.inkscape.org/namespaces/inkscape"
 sodipodi:version="0.32"
 inkscape:version="0.46dev+devel"
 version="1.0"
 sodipodi:docname="yeKcim_chest_open.svg"
 sodipodi:docbase="C:\Documents and Settings\user\Bureau\svg a mettre dans ma galerie"
 inkscape:output_extension="org.inkscape.output.svg.inkscape"
 inkscape:export-filename="c:\joanna\Gfx\drawings_vector\admin\thumbs\yekcim_chests.png"
 inkscape:export-xdpi="88.267517"
 inkscape:export-ydpi="88.267517">
 <defs>
  <style type="text/css">
   <![CDATA[
    .str2 {stroke:#57261B;stroke-width:7.62}
    .str0 {stroke:#F08143;stroke-width:7.62}
    .str1 {stroke:black;stroke-width:168.65;stroke-linecap:round;stroke-linejoin:round}
    .fil40 {fill:black}
    .fil3 {fill:#1F130A}
    .fil37 {fill:#412407}
    .fil2 {fill:#492F17}
    .fil38 {fill:#512D09}
    .fil6 {fill:#523E2C}
    .fil33 {fill:#5E3C1E}
    .fil34 {fill:#674221}
    .fil31 {fill:#684322}
    .fil36 {fill:#6B4523}
    .fil32 {fill:#784D27}
    .fil35 {fill:#794E27}
    .fil30 {fill:#85552B}
    .fil41 {fill:#917F6E}
    .fil99 {fill:#AC2921}
    .fil42 {fill:#B3A69A}
    .fil101 {fill:#D76548}
    .fil0 {fill:#FBEE69}
    .fil7 {fill:#FFED00}
    .fil102 {fill:url(#id0)}
    .fil5 {fill:url(#id1)}
    .fil104 {fill:url(#id2)}
    .fil94 {fill:url(#id3)}
    .fil85 {fill:url(#id4)}
    .fil98 {fill:url(#id5)}
    .fil26 {fill:url(#id6)}
    .fil100 {fill:url(#id7)}
    .fil97 {fill:url(#id8)}
    .fil4 {fill:url(#id9)}
    .fil57 {fill:url(#id10)}
    .fil55 {fill:url(#id11)}
    .fil62 {fill:url(#id12)}
    .fil56 {fill:url(#id13)}
    .fil58 {fill:url(#id14)}
    .fil65 {fill:url(#id15)}
    .fil11 {fill:url(#id16)}
    .fil112 {fill:url(#id17)}
    .fil81 {fill:url(#id18)}
    .fil15 {fill:url(#id19)}
    .fil13 {fill:url(#id20)}
    .fil72 {fill:url(#id21)}
    .fil25 {fill:url(#id22)}
    .fil86 {fill:url(#id23)}
    .fil93 {fill:url(#id24)}
    .fil71 {fill:url(#id25)}
    .fil20 {fill:url(#id26)}
    .fil84 {fill:url(#id27)}
    .fil19 {fill:url(#id28)}
    .fil66 {fill:url(#id29)}
    .fil90 {fill:url(#id30)}
    .fil79 {fill:url(#id31)}
    .fil95 {fill:url(#id32)}
    .fil47 {fill:url(#id33)}
    .fil23 {fill:url(#id34)}
    .fil78 {fill:url(#id35)}
    .fil69 {fill:url(#id36)}
    .fil92 {fill:url(#id37)}
    .fil54 {fill:url(#id38)}
    .fil10 {fill:url(#id39)}
    .fil80 {fill:url(#id40)}
    .fil83 {fill:url(#id41)}
    .fil22 {fill:url(#id42)}
    .fil96 {fill:url(#id43)}
    .fil18 {fill:url(#id44)}
    .fil51 {fill:url(#id45)}
    .fil64 {fill:url(#id46)}
    .fil17 {fill:url(#id47)}
    .fil50 {fill:url(#id48)}
    .fil1 {fill:url(#id49)}
    .fil21 {fill:url(#id50)}
    .fil76 {fill:url(#id51)}
    .fil60 {fill:url(#id52)}
    .fil27 {fill:url(#id53)}
    .fil87 {fill:url(#id54)}
    .fil88 {fill:url(#id55)}
    .fil14 {fill:url(#id56)}
    .fil24 {fill:url(#id57)}
    .fil82 {fill:url(#id58)}
    .fil75 {fill:url(#id59)}
    .fil70 {fill:url(#id60)}
    .fil110 {fill:url(#id61)}
    .fil89 {fill:url(#id62)}
    .fil73 {fill:url(#id63)}
    .fil111 {fill:url(#id64)}
    .fil68 {fill:url(#id65)}
    .fil74 {fill:url(#id66)}
    .fil77 {fill:url(#id67)}
    .fil67 {fill:url(#id68)}
    .fil45 {fill:url(#id69)}
    .fil59 {fill:url(#id70)}
    .fil91 {fill:url(#id71)}
    .fil44 {fill:url(#id72)}
    .fil49 {fill:url(#id73)}
    .fil53 {fill:url(#id74)}
    .fil43 {fill:url(#id75)}
    .fil61 {fill:url(#id76)}
    .fil46 {fill:url(#id77)}
    .fil29 {fill:url(#id78)}
    .fil8 {fill:url(#id79)}
    .fil52 {fill:url(#id80)}
    .fil48 {fill:url(#id81)}
    .fil63 {fill:url(#id82)}
    .fil107 {fill:url(#id83)}
    .fil105 {fill:url(#id84)}
    .fil109 {fill:url(#id85)}
    .fil106 {fill:url(#id86)}
    .fil108 {fill:url(#id87)}
    .fil28 {fill:url(#id88)}
    .fil12 {fill:url(#id89)}
    .fil16 {fill:url(#id90)}
    .fil9 {fill:url(#id91)}
    .fil103 {fill:url(#id92)}
    .fil39 {fill:url(#id93)}
   ]]>
  </style>
  <linearGradient id="id0" gradientUnits="userSpaceOnUse" x1="1696.74" y1="5036.17" x2="2049.82" y2="5689.33">
   <stop offset="0" style="stop-color:#AC2921"/>
   <stop offset="1" style="stop-color:#C44732"/>
  </linearGradient>
  <linearGradient id="id1" gradientUnits="userSpaceOnUse" x1="4364.23" y1="418.99" x2="5534.33" y2="2542.51">
   <stop offset="0" style="stop-color:#412407"/>
   <stop offset="1" style="stop-color:black"/>
  </linearGradient>
  <linearGradient id="id2" gradientUnits="userSpaceOnUse" x1="1301.6" y1="2738.17" x2="1921.96" y2="3047.33">
   <stop offset="0" style="stop-color:#FFED00"/>
   <stop offset="0.701961" style="stop-color:#FFF041"/>
   <stop offset="1" style="stop-color:#FFF383"/>
  </linearGradient>
  <linearGradient id="id3" gradientUnits="userSpaceOnUse" xlink:href="#id2" x1="858.69" y1="2303.1" x2="1469.87" y2="2598.4">
  </linearGradient>
  <linearGradient id="id4" gradientUnits="userSpaceOnUse" xlink:href="#id2" x1="1704.69" y1="2086.24" x2="2267.87" y2="2159.26">
  </linearGradient>
  <linearGradient id="id5" gradientUnits="userSpaceOnUse" x1="1780.09" y1="4844.47" x2="2132.47" y2="5492.03">
   <stop offset="0" style="stop-color:#AC2921"/>
   <stop offset="0.780392" style="stop-color:#C8513D"/>
   <stop offset="1" style="stop-color:#E47A5A"/>
  </linearGradient>
  <linearGradient id="id6" gradientUnits="userSpaceOnUse" xlink:href="#id2" x1="1067.59" y1="3055.4" x2="1570.97" y2="3415.1">
  </linearGradient>
  <linearGradient id="id7" gradientUnits="userSpaceOnUse" x1="2191.88" y1="5174.51" x2="2492.68" y2="5729.99">
   <stop offset="0" style="stop-color:#AC2921"/>
   <stop offset="0.301961" style="stop-color:#CB5743"/>
   <stop offset="1" style="stop-color:#EB8565"/>
  </linearGradient>
  <linearGradient id="id8" gradientUnits="userSpaceOnUse" x1="2143.02" y1="4663.32" x2="2556.54" y2="5423.18">
   <stop offset="0" style="stop-color:#AC2921"/>
   <stop offset="1" style="stop-color:#F1906E"/>
  </linearGradient>
  <linearGradient id="id9" gradientUnits="userSpaceOnUse" x1="2143.75" y1="330.45" x2="3832.81" y2="2614.05">
   <stop offset="0" style="stop-color:#61360A"/>
   <stop offset="1" style="stop-color:#050200"/>
  </linearGradient>
  <linearGradient id="id10" gradientUnits="userSpaceOnUse" xlink:href="#id2" x1="2388.08" y1="2128.38" x2="2776.48" y2="2493.12">
  </linearGradient>
  <linearGradient id="id11" gradientUnits="userSpaceOnUse" xlink:href="#id2" x1="3270.08" y1="2326.38" x2="3658.48" y2="2691.12">
  </linearGradient>
  <linearGradient id="id12" gradientUnits="userSpaceOnUse" xlink:href="#id2" x1="1951.07" y1="2525.38" x2="2339.49" y2="2890.12">
  </linearGradient>
  <linearGradient id="id13" gradientUnits="userSpaceOnUse" xlink:href="#id2" x1="2101.07" y1="2575.38" x2="2489.49" y2="2940.12">
  </linearGradient>
  <linearGradient id="id14" gradientUnits="userSpaceOnUse" xlink:href="#id2" x1="1813" y1="2315.35" x2="2202.56" y2="2680.15">
  </linearGradient>
  <linearGradient id="id15" gradientUnits="userSpaceOnUse" xlink:href="#id2" x1="1825" y1="2328.35" x2="2214.56" y2="2693.15">
  </linearGradient>
  <linearGradient id="id16" gradientUnits="userSpaceOnUse" xlink:href="#id2" x1="1855" y1="2901.35" x2="2244.56" y2="3266.15">
  </linearGradient>
  <linearGradient id="id17" gradientUnits="userSpaceOnUse" xlink:href="#id2" x1="1890" y1="5489.35" x2="2279.56" y2="5854.15">
  </linearGradient>
  <linearGradient id="id18" gradientUnits="userSpaceOnUse" xlink:href="#id2" x1="1921" y1="2219.35" x2="2310.56" y2="2584.15">
  </linearGradient>
  <linearGradient id="id19" gradientUnits="userSpaceOnUse" xlink:href="#id2" x1="1943" y1="3227.35" x2="2332.56" y2="3592.15">
  </linearGradient>
  <linearGradient id="id20" gradientUnits="userSpaceOnUse" xlink:href="#id2" x1="1998" y1="2962.35" x2="2387.56" y2="3327.15">
  </linearGradient>
  <linearGradient id="id21" gradientUnits="userSpaceOnUse" xlink:href="#id2" x1="755" y1="2465.34" x2="1144.56" y2="2830.16">
  </linearGradient>
  <linearGradient id="id22" gradientUnits="userSpaceOnUse" xlink:href="#id2" x1="776" y1="2924.34" x2="1165.56" y2="3289.16">
  </linearGradient>
  <linearGradient id="id23" gradientUnits="userSpaceOnUse" xlink:href="#id2" x1="1138" y1="2037.34" x2="1527.56" y2="2402.16">
  </linearGradient>
  <linearGradient id="id24" gradientUnits="userSpaceOnUse" xlink:href="#id2" x1="1276" y1="2247.34" x2="1665.56" y2="2612.16">
  </linearGradient>
  <linearGradient id="id25" gradientUnits="userSpaceOnUse" xlink:href="#id2" x1="1329" y1="2277.34" x2="1718.56" y2="2642.16">
  </linearGradient>
  <linearGradient id="id26" gradientUnits="userSpaceOnUse" xlink:href="#id2" x1="1410" y1="2868.34" x2="1799.56" y2="3233.16">
  </linearGradient>
  <linearGradient id="id27" gradientUnits="userSpaceOnUse" xlink:href="#id2" x1="1426" y1="2297.34" x2="1815.56" y2="2662.16">
  </linearGradient>
  <linearGradient id="id28" gradientUnits="userSpaceOnUse" xlink:href="#id2" x1="1706" y1="2851.34" x2="2095.56" y2="3216.16">
  </linearGradient>
  <linearGradient id="id29" gradientUnits="userSpaceOnUse" xlink:href="#id2" x1="1734" y1="2457.34" x2="2123.56" y2="2822.16">
  </linearGradient>
  <linearGradient id="id30" gradientUnits="userSpaceOnUse" xlink:href="#id2" x1="2100" y1="2340.34" x2="2489.56" y2="2705.16">
  </linearGradient>
  <linearGradient id="id31" gradientUnits="userSpaceOnUse" xlink:href="#id2" x1="2117" y1="2029.34" x2="2506.56" y2="2394.16">
  </linearGradient>
  <linearGradient id="id32" gradientUnits="userSpaceOnUse" xlink:href="#id2" x1="2128" y1="2101.34" x2="2517.56" y2="2466.16">
  </linearGradient>
  <linearGradient id="id33" gradientUnits="userSpaceOnUse" xlink:href="#id2" x1="2142" y1="2453.34" x2="2531.56" y2="2818.16">
  </linearGradient>
  <linearGradient id="id34" gradientUnits="userSpaceOnUse" xlink:href="#id2" x1="2188" y1="2902.34" x2="2577.56" y2="3267.16">
  </linearGradient>
  <linearGradient id="id35" gradientUnits="userSpaceOnUse" xlink:href="#id2" x1="2209" y1="1900.34" x2="2598.56" y2="2265.16">
  </linearGradient>
  <linearGradient id="id36" gradientUnits="userSpaceOnUse" xlink:href="#id2" x1="2211" y1="2475.34" x2="2600.56" y2="2840.16">
  </linearGradient>
  <linearGradient id="id37" gradientUnits="userSpaceOnUse" xlink:href="#id2" x1="2331" y1="2364.34" x2="2720.56" y2="2729.16">
  </linearGradient>
  <linearGradient id="id38" gradientUnits="userSpaceOnUse" xlink:href="#id2" x1="2342" y1="2353.34" x2="2731.56" y2="2718.16">
  </linearGradient>
  <linearGradient id="id39" gradientUnits="userSpaceOnUse" xlink:href="#id2" x1="2350" y1="2823.34" x2="2739.56" y2="3188.16">
  </linearGradient>
  <linearGradient id="id40" gradientUnits="userSpaceOnUse" xlink:href="#id2" x1="2464" y1="2288.34" x2="2853.56" y2="2653.16">
  </linearGradient>
  <linearGradient id="id41" gradientUnits="userSpaceOnUse" xlink:href="#id2" x1="2595" y1="2047.34" x2="2984.56" y2="2412.16">
  </linearGradient>
  <linearGradient id="id42" gradientUnits="userSpaceOnUse" xlink:href="#id2" x1="2675" y1="2829.34" x2="3064.56" y2="3194.16">
  </linearGradient>
  <linearGradient id="id43" gradientUnits="userSpaceOnUse" xlink:href="#id2" x1="2735" y1="2429.34" x2="3124.56" y2="2794.16">
  </linearGradient>
  <linearGradient id="id44" gradientUnits="userSpaceOnUse" xlink:href="#id2" x1="2761" y1="2968.34" x2="3150.56" y2="3333.16">
  </linearGradient>
  <linearGradient id="id45" gradientUnits="userSpaceOnUse" xlink:href="#id2" x1="2792.45" y1="2308.77" x2="3181.11" y2="2672.73">
  </linearGradient>
  <linearGradient id="id46" gradientUnits="userSpaceOnUse" xlink:href="#id2" x1="2803" y1="2379.34" x2="3192.56" y2="2744.16">
  </linearGradient>
  <linearGradient id="id47" gradientUnits="userSpaceOnUse" xlink:href="#id2" x1="2811" y1="3138.34" x2="3200.56" y2="3503.16">
  </linearGradient>
  <linearGradient id="id48" gradientUnits="userSpaceOnUse" xlink:href="#id2" x1="2884" y1="2179.34" x2="3273.56" y2="2544.16">
  </linearGradient>
  <linearGradient id="id49" gradientUnits="userSpaceOnUse" xlink:href="#id2" x1="2894" y1="2891.34" x2="3283.56" y2="3256.16">
  </linearGradient>
  <linearGradient id="id50" gradientUnits="userSpaceOnUse" xlink:href="#id2" x1="3165" y1="3033.34" x2="3554.56" y2="3398.16">
  </linearGradient>
  <linearGradient id="id51" gradientUnits="userSpaceOnUse" xlink:href="#id2" x1="596.99" y1="2692.34" x2="986.57" y2="3057.16">
  </linearGradient>
  <linearGradient id="id52" gradientUnits="userSpaceOnUse" xlink:href="#id2" x1="1834.99" y1="2775.34" x2="2224.57" y2="3140.16">
  </linearGradient>
  <linearGradient id="id53" gradientUnits="userSpaceOnUse" xlink:href="#id2" x1="1947.99" y1="2792.34" x2="2337.57" y2="3157.16">
  </linearGradient>
  <linearGradient id="id54" gradientUnits="userSpaceOnUse" xlink:href="#id2" x1="1999.99" y1="2551.34" x2="2389.57" y2="2916.16">
  </linearGradient>
  <linearGradient id="id55" gradientUnits="userSpaceOnUse" xlink:href="#id2" x1="1568.99" y1="2358.34" x2="1958.57" y2="2723.16">
  </linearGradient>
  <linearGradient id="id56" gradientUnits="userSpaceOnUse" xlink:href="#id2" x1="1588.99" y1="3100.34" x2="1978.57" y2="3465.16">
  </linearGradient>
  <linearGradient id="id57" gradientUnits="userSpaceOnUse" xlink:href="#id2" x1="1616.99" y1="2978.34" x2="2006.57" y2="3343.16">
  </linearGradient>
  <linearGradient id="id58" gradientUnits="userSpaceOnUse" xlink:href="#id2" x1="1665.99" y1="2075.34" x2="2055.57" y2="2440.16">
  </linearGradient>
  <linearGradient id="id59" gradientUnits="userSpaceOnUse" xlink:href="#id2" x1="892.99" y1="2675.34" x2="1282.57" y2="3040.16">
  </linearGradient>
  <linearGradient id="id60" gradientUnits="userSpaceOnUse" xlink:href="#id2" x1="1041.99" y1="2724.34" x2="1431.57" y2="3089.16">
  </linearGradient>
  <linearGradient id="id61" gradientUnits="userSpaceOnUse" xlink:href="#id2" x1="1078.99" y1="5326.34" x2="1468.57" y2="5691.16">
  </linearGradient>
  <linearGradient id="id62" gradientUnits="userSpaceOnUse" xlink:href="#id2" x1="1159.99" y1="2496.34" x2="1549.57" y2="2861.16">
  </linearGradient>
  <linearGradient id="id63" gradientUnits="userSpaceOnUse" xlink:href="#id2" x1="1184.99" y1="2786.34" x2="1574.57" y2="3151.16">
  </linearGradient>
  <linearGradient id="id64" gradientUnits="userSpaceOnUse" xlink:href="#id2" x1="1268.99" y1="5210.34" x2="1658.57" y2="5575.16">
  </linearGradient>
  <linearGradient id="id65" gradientUnits="userSpaceOnUse" xlink:href="#id2" x1="1282.99" y1="2502.34" x2="1672.57" y2="2867.16">
  </linearGradient>
  <linearGradient id="id66" gradientUnits="userSpaceOnUse" xlink:href="#id2" x1="1716.99" y1="2768.34" x2="2106.57" y2="3133.16">
  </linearGradient>
  <linearGradient id="id67" gradientUnits="userSpaceOnUse" xlink:href="#id2" x1="1743.99" y1="2528.34" x2="2133.57" y2="2893.16">
  </linearGradient>
  <linearGradient id="id68" gradientUnits="userSpaceOnUse" xlink:href="#id2" x1="2080.99" y1="2715.34" x2="2470.57" y2="3080.16">
  </linearGradient>
  <linearGradient id="id69" gradientUnits="userSpaceOnUse" xlink:href="#id2" x1="2095.99" y1="2679.34" x2="2485.57" y2="3044.16">
  </linearGradient>
  <linearGradient id="id70" gradientUnits="userSpaceOnUse" xlink:href="#id2" x1="2243.99" y1="2636.34" x2="2633.57" y2="3001.16">
  </linearGradient>
  <linearGradient id="id71" gradientUnits="userSpaceOnUse" xlink:href="#id2" x1="2381.99" y1="2534.34" x2="2771.57" y2="2899.16">
  </linearGradient>
  <linearGradient id="id72" gradientUnits="userSpaceOnUse" xlink:href="#id2" x1="2546.99" y1="2633.34" x2="2936.57" y2="2998.16">
  </linearGradient>
  <linearGradient id="id73" gradientUnits="userSpaceOnUse" xlink:href="#id2" x1="2556.99" y1="2704.34" x2="2946.57" y2="3069.16">
  </linearGradient>
  <linearGradient id="id74" gradientUnits="userSpaceOnUse" xlink:href="#id2" x1="2595.99" y1="2497.34" x2="2985.57" y2="2862.16">
  </linearGradient>
  <linearGradient id="id75" gradientUnits="userSpaceOnUse" xlink:href="#id2" x1="2637.99" y1="2504.34" x2="3027.57" y2="2869.16">
  </linearGradient>
  <linearGradient id="id76" gradientUnits="userSpaceOnUse" xlink:href="#id2" x1="2775.45" y1="2619.77" x2="3164.11" y2="2983.73">
  </linearGradient>
  <linearGradient id="id77" gradientUnits="userSpaceOnUse" xlink:href="#id2" x1="3005.99" y1="2643.34" x2="3395.57" y2="3008.16">
  </linearGradient>
  <linearGradient id="id78" gradientUnits="userSpaceOnUse" xlink:href="#id2" x1="3023.99" y1="2651.34" x2="3413.57" y2="3016.16">
  </linearGradient>
  <linearGradient id="id79" gradientUnits="userSpaceOnUse" xlink:href="#id2" x1="3056.99" y1="2813.34" x2="3446.57" y2="3178.16">
  </linearGradient>
  <linearGradient id="id80" gradientUnits="userSpaceOnUse" xlink:href="#id2" x1="3139.45" y1="2566.77" x2="3528.11" y2="2930.73">
  </linearGradient>
  <linearGradient id="id81" gradientUnits="userSpaceOnUse" xlink:href="#id2" x1="1567.99" y1="2641.35" x2="1957.57" y2="3006.15">
  </linearGradient>
  <linearGradient id="id82" gradientUnits="userSpaceOnUse" xlink:href="#id2" x1="1655.99" y1="2542.35" x2="2045.57" y2="2907.15">
  </linearGradient>
  <linearGradient id="id83" gradientUnits="userSpaceOnUse" xlink:href="#id2" x1="1916.86" y1="2734.33" x2="2274.7" y2="3092.17">
  </linearGradient>
  <linearGradient id="id84" gradientUnits="userSpaceOnUse" xlink:href="#id2" x1="2034.86" y1="2473.33" x2="2392.7" y2="2831.17">
  </linearGradient>
  <linearGradient id="id85" gradientUnits="userSpaceOnUse" xlink:href="#id2" x1="2128.86" y1="2831.33" x2="2486.7" y2="3189.17">
  </linearGradient>
  <linearGradient id="id86" gradientUnits="userSpaceOnUse" xlink:href="#id2" x1="2537.86" y1="2752.33" x2="2895.7" y2="3110.17">
  </linearGradient>
  <linearGradient id="id87" gradientUnits="userSpaceOnUse" xlink:href="#id2" x1="2616.09" y1="2925.66" x2="2975.47" y2="3282.84">
  </linearGradient>
  <linearGradient id="id88" gradientUnits="userSpaceOnUse" xlink:href="#id2" x1="2432.86" y1="2843.3" x2="2720.7" y2="3211.2">
  </linearGradient>
  <linearGradient id="id89" gradientUnits="userSpaceOnUse" xlink:href="#id2" x1="2463.86" y1="3149.3" x2="2751.7" y2="3517.2">
  </linearGradient>
  <linearGradient id="id90" gradientUnits="userSpaceOnUse" xlink:href="#id2" x1="2594.86" y1="2956.3" x2="2882.7" y2="3324.2">
  </linearGradient>
  <linearGradient id="id91" gradientUnits="userSpaceOnUse" xlink:href="#id2" x1="3507.02" y1="2672.11" x2="3758.54" y2="3049.39">
  </linearGradient>
  <linearGradient id="id92" gradientUnits="userSpaceOnUse" x1="2140.71" y1="5420.61" x2="2322.85" y2="5757.89">
   <stop offset="0" style="stop-color:#AC2921"/>
   <stop offset="1" style="stop-color:#DA6A4C"/>
  </linearGradient>
  <radialGradient id="id93" gradientUnits="userSpaceOnUse" cx="2606.78" cy="5070.75" r="560.5" fx="2606.78" fy="5070.75">
   <stop offset="0" style="stop-color:#DADADA"/>
   <stop offset="1" style="stop-color:#888888"/>
   <stop offset="1" style="stop-color:#888888"/>
  </radialGradient>
 </defs>
 <g id="Layer_x0020_1">
  <metadata id="CorelCorpID_0Corel-Layer"/>
  <g id="_339132016">
   <path class="fil0 str0" d="M3075 2951c125,-7 291,38 307,106 9,42 10,64 12,79 8,68 -118,131 -280,140 -162,9 -288,-41 -307,-106 -6,-19 -12,-56 -12,-79 0,-71 162,-133 280,-140z"/>
   <path class="fil1 str0" d="M3075 2951c162,-9 299,38 307,106 8,68 -118,131 -280,140 -162,9 -299,-38 -307,-106 -8,-68 118,-131 280,-140z"/>
   <sodipodi:namedview id="base" pagecolor="#ffffff" bordercolor="#666666" borderopacity="1.0" inkscape:pageopacity="0.0" inkscape:pageshadow="2" inkscape:zoom="1.8154313" inkscape:cx="210.82473" inkscape:cy="83.944069" inkscape:document-units="px" inkscape:current-layer="layer1" inkscape:window-width="1280" inkscape:window-height="725" inkscape:window-x="0" inkscape:window-y="41" showgrid="false"/>
   <path id="path5651" class="fil2 str1" d="M4529 440l-2689 22 -419 1711 36 5 -1277 926 -15 -2 0 13 -3 2 3 1 7 728 -8 -2 8 543 5 1c-4,54 -1,168 3,278l2 238 429 87 0 -3 2025 423 2 25 419 150 -1 -22 243 -222 632 -536 1 8 321 -273 -167 -2026 16 -14 32 4 3 -17c1246,-221 1481,-1646 390,-2035l2 -12 0 -1zm-4023 2526l-88 61 -2 0 90 -61z" sodipodi:nodetypes="ccccccccccccccccccccccccccccccccccc"/>
   <polygon id="path10569" class="fil2" points="4045,2539 1499,2243 1531,3532 2971,3922 " sodipodi:nodetypes="ccccc"/>
   <polygon id="path10581" class="fil3" points="1522,2262 1559,3764 252,3141 " sodipodi:nodetypes="cccc"/>
   <polygon id="path10595" class="fil4" points="4116,2420 1492,2202 1899,580 4484,525 "/>
   <path id="path10597" class="fil3" d="M1592 2239l350 -1638c675,-8 1196,1324 -350,1638z" sodipodi:nodetypes="ccc"/>
   <path id="path10601" class="fil5" d="M4123 2410l371 -1855c721,-3 1281,1514 -371,1855z" sodipodi:nodetypes="ccc"/>
   <path id="path10603" class="fil6" d="M1841 461l2688 -22 -396 2064 -2713 -331 420 -1712 1 1zm113 150l-323 1507 2445 268 369 -1839 -2491 64z"/>
   <path id="path10605" class="fil6" d="M4494 440c1138,375 897,1849 -390,2052l390 -2052zm34 187l-316 1660c1041,-165 1237,-1356 316,-1660z"/>
   <path class="fil0 str0" d="M2531 2883c125,-7 291,38 307,106 9,42 10,64 12,79 8,68 -118,131 -280,140 -162,9 -288,-41 -307,-106 -6,-19 -12,-56 -12,-79 0,-71 162,-133 280,-140z"/>
   <path class="fil7 str0" d="M3238 2873c125,-7 291,38 307,106 9,42 10,64 12,79 8,68 -118,131 -280,140 -162,9 -288,-41 -307,-106 -6,-19 -12,-56 -12,-79 0,-71 162,-133 280,-140z"/>
   <path class="fil8 str0" d="M3238 2873c162,-9 299,38 307,106 8,68 -118,131 -280,140 -162,9 -299,-38 -307,-106 -8,-68 118,-131 280,-140z"/>
   <path class="fil0 str0" d="M3647 2738c123,21 275,104 275,173 0,43 -5,64 -7,80 -8,68 -144,101 -304,73 -160,-28 -271,-105 -275,-173 -1,-20 2,-57 7,-80 16,-69 188,-93 304,-73z"/>
   <path class="fil9 str0" d="M3647 2738c160,28 283,105 275,173 -8,68 -144,101 -304,73 -160,-28 -283,-105 -275,-173 8,-68 144,-101 304,-73z"/>
   <path class="fil10 str0" d="M2531 2883c162,-9 299,38 307,106 8,68 -118,131 -280,140 -162,9 -299,-38 -307,-106 -8,-68 118,-131 280,-140z"/>
   <path class="fil0 str0" d="M2036 2961c125,-7 291,38 307,106 9,42 10,64 12,79 8,68 -118,131 -280,140 -162,9 -288,-41 -307,-106 -6,-19 -12,-56 -12,-79 0,-71 162,-133 280,-140z"/>
   <path class="fil11 str0" d="M2036 2961c162,-9 299,38 307,106 8,68 -118,131 -280,140 -162,9 -299,-38 -307,-106 -8,-68 118,-131 280,-140z"/>
   <path class="fil0 str0" d="M2613 3210c124,12 282,83 287,152 3,43 0,65 -1,80 -3,68 -136,111 -298,95 -161,-16 -278,-84 -287,-152 -3,-20 -3,-57 1,-80 11,-70 181,-107 298,-95z"/>
   <path class="fil12 str0" d="M2613 3210c161,16 290,84 287,152 -3,68 -136,111 -298,95 -161,-16 -290,-84 -287,-152 3,-68 136,-111 298,-95z"/>
   <path class="fil0 str0" d="M2179 3022c125,-7 292,38 307,106 9,42 10,64 12,79 8,68 -118,131 -280,140 -162,9 -288,-41 -307,-106 -6,-19 -12,-56 -12,-79 0,-71 162,-133 280,-140z"/>
   <path class="fil13 str0" d="M2179 3022c162,-9 299,38 307,106 8,68 -118,131 -280,140 -162,9 -299,-38 -307,-106 -8,-68 118,-131 280,-140z"/>
   <path class="fil0 str0" d="M1770 3160c125,-7 291,38 307,106 9,42 10,64 12,79 8,68 -118,131 -280,140 -162,9 -288,-41 -307,-106 -6,-19 -12,-56 -12,-79 0,-71 162,-133 280,-140z"/>
   <path class="fil14 str0" d="M1770 3160c162,-9 299,38 307,106 8,68 -118,131 -280,140 -162,9 -299,-38 -307,-106 -8,-68 118,-131 280,-140z"/>
   <path class="fil7 str0" d="M2124 3287c125,-7 291,38 307,106 9,42 10,64 12,79 8,68 -118,131 -280,140 -162,9 -288,-41 -307,-106 -6,-19 -12,-56 -12,-79 0,-71 162,-133 280,-140z"/>
   <path class="fil15 str0" d="M2124 3287c162,-9 299,38 307,106 8,68 -118,131 -280,140 -162,9 -299,-38 -307,-106 -8,-68 118,-131 280,-140z"/>
   <path class="fil0 str0" d="M2744 3017c124,12 282,83 287,152 3,43 0,65 -1,80 -3,68 -136,111 -298,95 -161,-16 -278,-84 -287,-152 -3,-20 -3,-57 1,-80 11,-70 181,-107 298,-95z"/>
   <path class="fil16 str0" d="M2744 3017c161,16 290,84 287,152 -3,68 -136,111 -298,95 -161,-16 -290,-84 -287,-152 3,-68 136,-111 298,-95z"/>
   <path class="fil7 str0" d="M2992 3198c125,-7 291,38 307,106 9,42 10,64 12,79 8,68 -118,131 -280,140 -162,9 -288,-41 -307,-106 -6,-19 -12,-56 -12,-79 0,-71 162,-133 280,-140z"/>
   <path class="fil17 str0" d="M2992 3198c162,-9 299,38 307,106 8,68 -118,131 -280,140 -162,9 -299,-38 -307,-106 -8,-68 118,-131 280,-140z"/>
   <path class="fil0 str0" d="M2942 3028c125,-7 291,38 307,106 9,42 10,64 12,79 8,68 -118,131 -280,140 -162,9 -288,-41 -307,-106 -6,-19 -12,-56 -12,-79 0,-71 162,-133 280,-140z"/>
   <path class="fil18 str0" d="M2942 3028c162,-9 299,38 307,106 8,68 -118,131 -280,140 -162,9 -299,-38 -307,-106 -8,-68 118,-131 280,-140z"/>
   <path class="fil0 str0" d="M1887 2911c125,-7 291,38 307,106 9,42 10,64 12,79 8,68 -118,131 -280,140 -162,9 -288,-41 -307,-106 -6,-19 -12,-56 -12,-79 0,-71 162,-133 280,-140z"/>
   <path class="fil19 str0" d="M1887 2911c162,-9 299,38 307,106 8,68 -118,131 -280,140 -162,9 -299,-38 -307,-106 -8,-68 118,-131 280,-140z"/>
   <path class="fil7 str0" d="M1591 2928c125,-7 292,38 307,106 9,42 10,64 12,79 8,68 -118,131 -280,140 -162,9 -288,-41 -307,-106 -6,-19 -12,-56 -12,-79 0,-71 162,-133 280,-140z"/>
   <path class="fil20 str0" d="M1591 2928c162,-9 299,38 307,106 8,68 -118,131 -280,140 -162,9 -299,-38 -307,-106 -8,-68 118,-131 280,-140z"/>
   <path class="fil0 str0" d="M3346 3093c125,-7 292,38 307,106 9,42 10,64 12,79 8,68 -118,131 -280,140 -162,9 -288,-41 -307,-106 -6,-19 -12,-56 -12,-79 0,-71 162,-133 280,-140z"/>
   <path class="fil21 str0" d="M3346 3093c162,-9 299,38 307,106 8,68 -118,131 -280,140 -162,9 -299,-38 -307,-106 -8,-68 118,-131 280,-140z"/>
   <path class="fil0 str0" d="M2856 2889c125,-7 291,38 307,106 9,42 10,64 12,79 8,68 -118,131 -280,140 -162,9 -288,-41 -307,-106 -6,-19 -12,-56 -12,-79 0,-71 162,-133 280,-140z"/>
   <path class="fil22 str0" d="M2856 2889c162,-9 299,38 307,106 8,68 -118,131 -280,140 -162,9 -299,-38 -307,-106 -8,-68 118,-131 280,-140z"/>
   <path class="fil0 str0" d="M2016 2835c125,-7 291,38 307,106 9,42 10,64 12,79 8,68 -118,131 -280,140 -162,9 -288,-41 -307,-106 -6,-19 -12,-56 -12,-79 0,-71 162,-133 280,-140z"/>
   <path class="fil7 str0" d="M2369 2962c125,-7 291,38 307,106 9,42 10,64 12,79 8,68 -118,131 -280,140 -162,9 -288,-41 -307,-106 -6,-19 -12,-56 -12,-79 0,-71 162,-133 280,-140z"/>
   <path class="fil23 str0" d="M2369 2962c162,-9 299,38 307,106 8,68 -118,131 -280,140 -162,9 -299,-38 -307,-106 -8,-68 118,-131 280,-140z"/>
   <path class="fil0 str0" d="M2262 2775c125,-7 291,38 307,106 9,42 10,64 12,79 8,68 -118,131 -280,140 -162,9 -288,-41 -307,-106 -6,-19 -12,-56 -12,-79 0,-71 162,-133 280,-140z"/>
   <path class="fil0 str0" d="M1223 2784c125,-7 291,38 307,106 9,42 10,64 12,79 8,68 -118,131 -280,140 -162,9 -288,-41 -307,-106 -6,-19 -12,-56 -12,-79 0,-71 162,-133 280,-140z"/>
   <path class="fil0 str0" d="M1798 3038c125,-7 291,38 307,106 9,42 10,64 12,79 8,68 -118,131 -280,140 -162,9 -288,-41 -307,-106 -6,-19 -12,-56 -12,-79 0,-71 162,-133 280,-140z"/>
   <path class="fil24 str0" d="M1798 3038c162,-9 299,38 307,106 8,68 -118,131 -280,140 -162,9 -299,-38 -307,-106 -8,-68 118,-131 280,-140z"/>
   <path class="fil0 str0" d="M1366 2846c125,-7 292,38 307,106 9,42 10,64 12,79 8,68 -118,131 -280,140 -162,9 -288,-41 -307,-106 -6,-19 -12,-56 -12,-79 0,-71 162,-133 280,-140z"/>
   <path class="fil0 str0" d="M957 2984c125,-7 291,38 307,106 9,42 10,64 12,79 8,68 -118,131 -280,140 -162,9 -288,-41 -307,-106 -6,-19 -12,-56 -12,-79 0,-71 162,-133 280,-140z"/>
   <path class="fil25 str0" d="M957 2984c162,-9 299,38 307,106 8,68 -118,131 -280,140 -162,9 -299,-38 -307,-106 -8,-68 118,-131 280,-140z"/>
   <path class="fil7 str0" d="M1289 3115c123,-24 294,-1 318,65 15,40 18,62 22,77 17,67 -99,145 -258,176 -159,31 -290,-2 -318,-65 -8,-18 -19,-54 -22,-77 -10,-70 143,-154 258,-176z"/>
   <path class="fil26 str0" d="M1289 3115c159,-31 302,-2 318,65 17,66 -99,145 -258,176 -159,31 -302,2 -318,-65 -17,-66 99,-145 258,-176z"/>
   <path class="fil0 str0" d="M1898 2828c125,-7 291,38 307,106 9,42 10,64 12,79 8,68 -118,131 -280,140 -162,9 -288,-41 -307,-106 -6,-19 -12,-56 -12,-79 0,-71 162,-133 280,-140z"/>
   <path class="fil7 str0" d="M2179 3022c125,-7 291,38 307,106 9,42 10,64 12,79 8,68 -118,131 -280,140 -162,9 -288,-41 -307,-106 -6,-19 -12,-56 -12,-79 0,-71 162,-133 280,-140z"/>
   <path class="fil13 str0" d="M2179 3022c162,-9 299,38 307,106 8,68 -118,131 -280,140 -162,9 -299,-38 -307,-106 -8,-68 118,-131 280,-140z"/>
   <path class="fil0 str0" d="M2129 2852c125,-7 291,38 307,106 9,42 10,64 12,79 8,68 -118,131 -280,140 -162,9 -288,-41 -307,-106 -6,-19 -12,-56 -12,-79 0,-71 162,-133 280,-140z"/>
   <path class="fil27 str0" d="M2129 2852c162,-9 299,38 307,106 8,68 -118,131 -280,140 -162,9 -299,-38 -307,-106 -8,-68 118,-131 280,-140z"/>
   <path class="fil0 str0" d="M2582 2904c124,12 282,83 287,152 3,43 0,65 -1,80 -3,68 -136,111 -298,95 -161,-16 -278,-84 -287,-152 -3,-20 -3,-57 1,-80 11,-70 181,-107 298,-95z"/>
   <path class="fil28 str0" d="M2582 2904c161,16 290,84 287,152 -3,68 -136,111 -298,95 -161,-16 -290,-84 -287,-152 3,-68 136,-111 298,-95z"/>
   <path class="fil7 str0" d="M3205 2711c125,-7 291,38 307,106 9,42 10,64 12,79 8,68 -118,131 -280,140 -162,9 -288,-41 -307,-106 -6,-19 -12,-56 -12,-79 0,-71 162,-133 280,-140z"/>
   <path class="fil29 str0" d="M3205 2711c162,-9 299,38 307,106 8,68 -118,131 -280,140 -162,9 -299,-38 -307,-106 -8,-68 118,-131 280,-140z"/>
   <rect id="rect10571" class="fil30" transform="matrix(0.762744 -0.646701 0.032074 1.28386 3060.35 4748.05)" width="1476" height="607" inkscape:transform-center-y="15.964748" inkscape:transform-center-x="-3.2311253"/>
   <rect id="rect10573" class="fil31" transform="matrix(0.785774 -0.618514 0.0311803 1.24809 3017.55 4053.55)" width="1421" height="567" inkscape:transform-center-y="14.61411" inkscape:transform-center-x="-3.2360271"/>
   <rect id="rect10575" class="fil32" transform="matrix(0.785774 -0.618514 0.0311803 1.24809 2966.02 3392.25)" width="1405" height="560" inkscape:transform-center-x="-3.235976" inkscape:transform-center-y="14.614086"/>
   <path id="path10577" class="fil33" d="M3066 5500l-2875 -601c0,0 -30,-539 -8,-542 22,-3 2890,548 2890,548l-7 595z" sodipodi:nodetypes="ccscc"/>
   <polygon id="path10579" class="fil34" points="3046,4914 173,4386 165,3844 3036,4299 " sodipodi:nodetypes="ccccc"/>
   <polygon id="path10583" class="fil35" points="3037,4338 2997,3868 205,3468 260,4104 " sodipodi:nodetypes="ccccc"/>
   <polygon id="path10585" class="fil36" points="2987,3897 2970,3423 179,3107 207,3535 " sodipodi:nodetypes="ccccc"/>
   <polygon id="path10587" class="fil37" points="4086,2503 3809,2757 3933,4812 4253,4540 " sodipodi:nodetypes="ccccc"/>
   <polygon id="path10589" class="fil37" points="3215,3269 2939,3523 3056,5563 3365,5281 " sodipodi:nodetypes="ccccc"/>
   <polygon id="path10591" class="fil38" points="2950,3511 2532,3439 2638,5435 3057,5585 "/>
   <polygon id="path10593" class="fil38" points="516,3149 165,3101 183,4903 612,4990 " sodipodi:nodetypes="ccccc"/>
   <path id="path10615" class="fil39" d="M1091 3603c248,-77 591,-47 827,142 128,103 93,811 -396,732 -437,-70 -597,-822 -431,-873l0 -1z" sodipodi:nodetypes="csss"/>
   <path id="path10617" class="fil40" d="M1475 3770c-36,-5 -71,9 -89,40l0 0c-25,45 -7,109 42,143l-97 219 292 49 -86 -256c13,-7 23,-17 31,-31 26,-46 6,-111 -44,-145 -16,-11 -33,-17 -49,-20l0 1z"/>
   <path id="path10599" class="fil6" d="M1459 2175l2646 321 -1150 1018 -2793 -399 1297 -940zm79 89l-1123 762 2520 369 916 -844 -2313 -287z"/>
   <path id="path10607" class="fil41" d="M3601 2358c-51,35 -72,87 -86,142l-259 -41c-59,-18 11,-139 72,-130l273 29z" sodipodi:nodetypes="ccccc"/>
   <path id="path10609" class="fil42" d="M3591 2432c12,-28 16,-54 8,-67 -11,-20 -41,-8 -67,27 -26,35 -38,80 -27,100 11,20 41,8 67,-27 7,-10 14,-21 19,-33m0 0l0 0 0 0z" sodipodi:type="arc" sodipodi:cx="2211.8247" sodipodi:cy="232.68178" sodipodi:rx="3.1114354" sodipodi:ry="3.7201946" sodipodi:start="3.6184187" sodipodi:end="9.8998895" sodipodi:open="true"/>
   <path id="path10611" class="fil41" d="M2250 2193c-51,35 -72,87 -86,142l-259 -41c-59,-18 11,-139 72,-130l273 29z" sodipodi:nodetypes="ccccc"/>
   <path id="path10613" class="fil42" d="M2240 2268c13,-28 16,-54 8,-67 -11,-20 -41,-8 -67,27 -26,35 -38,80 -27,100 11,20 41,8 67,-27 7,-10 14,-21 19,-33m0 0l0 0 0 0z" sodipodi:type="arc" sodipodi:cx="2211.8247" sodipodi:cy="232.68178" sodipodi:rx="3.1114354" sodipodi:ry="3.7201946" sodipodi:start="3.6184187" sodipodi:end="9.8998895" sodipodi:open="true"/>
   <path class="fil0 str0" d="M2819 2564c125,-7 291,38 307,106 9,42 10,64 12,79 8,68 -118,131 -280,140 -162,9 -288,-41 -307,-106 -6,-19 -12,-56 -12,-79 0,-71 162,-133 280,-140z"/>
   <path class="fil43 str0" d="M2819 2564c162,-9 299,38 307,106 8,68 -118,131 -280,140 -162,9 -299,-38 -307,-106 -8,-68 118,-131 280,-140z"/>
   <path class="fil0 str0" d="M2728 2693c125,-7 291,38 307,106 9,42 10,64 12,79 8,68 -118,131 -280,140 -162,9 -288,-41 -307,-106 -6,-19 -12,-56 -12,-79 0,-71 162,-133 280,-140z"/>
   <path class="fil44 str0" d="M2728 2693c162,-9 299,38 307,106 8,68 -118,131 -280,140 -162,9 -299,-38 -307,-106 -8,-68 118,-131 280,-140z"/>
   <path class="fil0 str0" d="M2277 2739c125,-7 291,38 307,106 9,42 10,64 12,79 8,68 -118,131 -280,140 -162,9 -288,-41 -307,-106 -6,-19 -12,-56 -12,-79 0,-71 162,-133 280,-140z"/>
   <path class="fil45 str0" d="M2277 2739c162,-9 299,38 307,106 8,68 -118,131 -280,140 -162,9 -299,-38 -307,-106 -8,-68 118,-131 280,-140z"/>
   <path class="fil7 str0" d="M2323 2513c125,-7 292,38 307,106 9,42 10,64 12,79 8,68 -118,131 -280,140 -162,9 -288,-41 -307,-106 -6,-19 -12,-56 -12,-79 0,-71 162,-133 280,-140z"/>
   <path class="fil0 str0" d="M3187 2703c125,-7 291,38 307,106 9,42 10,64 12,79 8,68 -118,131 -280,140 -162,9 -288,-41 -307,-106 -6,-19 -12,-56 -12,-79 0,-71 162,-133 280,-140z"/>
   <path class="fil46 str0" d="M3187 2703c162,-9 299,38 307,106 8,68 -118,131 -280,140 -162,9 -299,-38 -307,-106 -8,-68 118,-131 280,-140z"/>
   <path class="fil47 str0" d="M2323 2513c162,-9 299,38 307,106 8,68 -118,131 -280,140 -162,9 -299,-38 -307,-106 -8,-68 118,-131 280,-140z"/>
   <path class="fil0 str0" d="M1749 2701c125,-7 291,38 307,106 9,42 10,64 12,79 8,68 -118,131 -280,140 -162,9 -288,-41 -307,-106 -6,-19 -12,-56 -12,-79 0,-71 162,-133 280,-140z"/>
   <path class="fil48 str0" d="M1749 2701c162,-9 299,38 307,106 8,68 -118,131 -280,140 -162,9 -299,-38 -307,-106 -8,-68 118,-131 280,-140z"/>
   <path class="fil7 str0" d="M2738 2764c125,-7 291,38 307,106 9,42 10,64 12,79 8,68 -118,131 -280,140 -162,9 -288,-41 -307,-106 -6,-19 -12,-56 -12,-79 0,-71 162,-133 280,-140z"/>
   <path class="fil49 str0" d="M2738 2764c162,-9 299,38 307,106 8,68 -118,131 -280,140 -162,9 -299,-38 -307,-106 -8,-68 118,-131 280,-140z"/>
   <path class="fil0 str0" d="M3065 2239c125,-7 291,38 307,106 9,42 10,64 12,79 8,68 -118,131 -280,140 -162,9 -288,-41 -307,-106 -6,-19 -12,-56 -12,-79 0,-71 162,-133 280,-140z"/>
   <path class="fil50 str0" d="M3065 2239c162,-9 299,38 307,106 8,68 -118,131 -280,140 -162,9 -299,-38 -307,-106 -8,-68 118,-131 280,-140z"/>
   <path class="fil0 str0" d="M2973 2368c125,-7 291,38 307,106 9,42 10,64 12,79 8,68 -118,131 -280,140 -162,9 -288,-41 -307,-106 -6,-19 -12,-56 -12,-79 0,-71 162,-133 280,-140z"/>
   <path class="fil51 str0" d="M2973 2368c162,-9 299,38 307,106 7,68 -118,131 -280,140 -162,9 -299,-38 -307,-106 -7,-68 118,-131 280,-140z"/>
   <path class="fil0 str0" d="M3320 2626c125,-7 291,38 307,106 9,42 10,64 12,79 8,68 -118,131 -280,140 -162,9 -288,-41 -307,-106 -6,-19 -12,-56 -12,-79 0,-71 162,-133 280,-140z"/>
   <path class="fil52 str0" d="M3320 2626c162,-9 299,38 307,106 7,68 -118,131 -280,140 -162,9 -299,-38 -307,-106 -7,-68 118,-131 280,-140z"/>
   <path class="fil0 str0" d="M2777 2557c125,-7 291,38 307,106 9,42 10,64 12,79 8,68 -118,131 -280,140 -162,9 -288,-41 -307,-106 -6,-19 -12,-56 -12,-79 0,-71 162,-133 280,-140z"/>
   <path class="fil53 str0" d="M2777 2557c162,-9 299,38 307,106 8,68 -118,131 -280,140 -162,9 -299,-38 -307,-106 -8,-68 118,-131 280,-140z"/>
   <path class="fil0 str0" d="M2523 2413c125,-7 291,38 307,106 9,42 10,64 12,79 8,68 -118,131 -280,140 -162,9 -288,-41 -307,-106 -6,-19 -12,-56 -12,-79 0,-71 162,-133 280,-140z"/>
   <path class="fil54 str0" d="M2523 2413c162,-9 299,38 307,106 8,68 -118,131 -280,140 -162,9 -299,-38 -307,-106 -8,-68 118,-131 280,-140z"/>
   <path class="fil7 str0" d="M3451 2386c125,-7 291,38 307,106 9,42 10,64 12,79 8,68 -118,131 -280,140 -162,9 -288,-41 -307,-106 -6,-19 -12,-56 -12,-79 0,-71 162,-133 280,-140z"/>
   <path class="fil55 str0" d="M3451 2386c162,-9 299,38 307,106 7,68 -118,131 -280,140 -162,9 -299,-38 -307,-106 -8,-68 118,-131 280,-140z"/>
   <path class="fil0 str0" d="M2282 2635c125,-7 291,38 307,106 9,42 10,64 12,79 8,68 -118,131 -280,140 -162,9 -288,-41 -307,-106 -6,-19 -12,-56 -12,-79 0,-71 162,-133 280,-140z"/>
   <path class="fil56 str0" d="M2282 2635c162,-9 299,38 307,106 7,68 -118,131 -280,140 -162,9 -299,-38 -307,-106 -8,-68 118,-131 280,-140z"/>
   <path class="fil7 str0" d="M2569 2188c125,-7 292,38 307,106 9,42 10,64 12,79 8,68 -118,131 -280,140 -162,9 -288,-41 -307,-106 -6,-19 -12,-56 -12,-79 0,-71 162,-133 280,-140z"/>
   <path class="fil57 str0" d="M2569 2188c162,-9 299,38 307,106 7,68 -118,131 -280,140 -162,9 -299,-38 -307,-106 -8,-68 118,-131 280,-140z"/>
   <path class="fil0 str0" d="M1994 2375c125,-7 291,38 307,106 9,42 10,64 12,79 8,68 -118,131 -280,140 -162,9 -288,-41 -307,-106 -6,-19 -12,-56 -12,-79 0,-71 162,-133 280,-140z"/>
   <path class="fil58 str0" d="M1994 2375c162,-9 299,38 307,106 8,68 -118,131 -280,140 -162,9 -299,-38 -307,-106 -8,-68 118,-131 280,-140z"/>
   <path class="fil0 str0" d="M2425 2696c125,-7 292,38 307,106 9,42 10,64 12,79 8,68 -118,131 -280,140 -162,9 -288,-41 -307,-106 -6,-19 -12,-56 -12,-79 0,-71 162,-133 280,-140z"/>
   <path class="fil59 str0" d="M2425 2696c162,-9 299,38 307,106 8,68 -118,131 -280,140 -162,9 -299,-38 -307,-106 -8,-68 118,-131 280,-140z"/>
   <path class="fil60 str0" d="M2016 2835c162,-9 299,38 307,106 8,68 -118,131 -280,140 -162,9 -299,-38 -307,-106 -8,-68 118,-131 280,-140z"/>
   <path class="fil0 str0" d="M2956 2679c125,-7 291,38 307,106 9,42 10,64 12,79 8,68 -118,131 -280,140 -162,9 -288,-41 -307,-106 -6,-19 -12,-56 -12,-79 0,-71 162,-133 280,-140z"/>
   <path class="fil61 str0" d="M2956 2679c162,-9 299,38 307,106 7,68 -118,131 -280,140 -162,9 -299,-38 -307,-106 -7,-68 118,-131 280,-140z"/>
   <path class="fil0 str0" d="M2132 2585c125,-7 291,38 307,106 9,42 10,64 12,79 8,68 -118,131 -280,140 -162,9 -288,-41 -307,-106 -6,-19 -12,-56 -12,-79 0,-71 162,-133 280,-140z"/>
   <path class="fil62 str0" d="M2132 2585c162,-9 299,38 307,106 7,68 -118,131 -280,140 -162,9 -299,-38 -307,-106 -8,-68 118,-131 280,-140z"/>
   <path class="fil7 str0" d="M1837 2602c125,-7 292,38 307,106 9,42 10,64 12,79 8,68 -118,131 -280,140 -162,9 -288,-41 -307,-106 -6,-19 -12,-56 -12,-79 0,-71 162,-133 280,-140z"/>
   <path class="fil63 str0" d="M1837 2602c162,-9 299,38 307,106 8,68 -118,131 -280,140 -162,9 -299,-38 -307,-106 -8,-68 118,-131 280,-140z"/>
   <path class="fil7 str0" d="M2984 2439c125,-7 291,38 307,106 9,42 10,64 12,79 8,68 -118,131 -280,140 -162,9 -288,-41 -307,-106 -6,-19 -12,-56 -12,-79 0,-71 162,-133 280,-140z"/>
   <path class="fil64 str0" d="M2984 2439c162,-9 299,38 307,106 8,68 -118,131 -280,140 -162,9 -299,-38 -307,-106 -8,-68 118,-131 280,-140z"/>
   <path class="fil0 str0" d="M2006 2388c125,-7 291,38 307,106 9,42 10,64 12,79 8,68 -118,131 -280,140 -162,9 -288,-41 -307,-106 -6,-19 -12,-56 -12,-79 0,-71 162,-133 280,-140z"/>
   <path class="fil65 str0" d="M2006 2388c162,-9 299,38 307,106 8,68 -118,131 -280,140 -162,9 -299,-38 -307,-106 -8,-68 118,-131 280,-140z"/>
   <path class="fil0 str0" d="M1915 2517c125,-7 291,38 307,106 9,42 10,64 12,79 8,68 -118,131 -280,140 -162,9 -288,-41 -307,-106 -6,-19 -12,-56 -12,-79 0,-71 162,-133 280,-140z"/>
   <path class="fil66 str0" d="M1915 2517c162,-9 299,38 307,106 8,68 -118,131 -280,140 -162,9 -299,-38 -307,-106 -8,-68 118,-131 280,-140z"/>
   <path class="fil67 str0" d="M2262 2775c162,-9 299,38 307,106 8,68 -118,131 -280,140 -162,9 -299,-38 -307,-106 -8,-68 118,-131 280,-140z"/>
   <path class="fil0 str0" d="M1464 2562c125,-7 291,38 307,106 9,42 10,64 12,79 8,68 -118,131 -280,140 -162,9 -288,-41 -307,-106 -6,-19 -12,-56 -12,-79 0,-71 162,-133 280,-140z"/>
   <path class="fil68 str0" d="M1464 2562c162,-9 299,38 307,106 8,68 -118,131 -280,140 -162,9 -299,-38 -307,-106 -8,-68 118,-131 280,-140z"/>
   <path class="fil7 str0" d="M2392 2535c125,-7 291,38 307,106 9,42 10,64 12,79 8,68 -118,131 -280,140 -162,9 -288,-41 -307,-106 -6,-19 -12,-56 -12,-79 0,-71 162,-133 280,-140z"/>
   <path class="fil69 str0" d="M2392 2535c162,-9 299,38 307,106 8,68 -118,131 -280,140 -162,9 -299,-38 -307,-106 -8,-68 118,-131 280,-140z"/>
   <path class="fil70 str0" d="M1223 2784c162,-9 299,38 307,106 8,68 -118,131 -280,140 -162,9 -299,-38 -307,-106 -8,-68 118,-131 280,-140z"/>
   <path class="fil7 str0" d="M1510 2337c125,-7 292,38 307,106 9,42 10,64 12,79 8,68 -118,131 -280,140 -162,9 -288,-41 -307,-106 -6,-19 -12,-56 -12,-79 0,-71 162,-133 280,-140z"/>
   <path class="fil71 str0" d="M1510 2337c162,-9 299,38 307,106 8,68 -118,131 -280,140 -162,9 -299,-38 -307,-106 -8,-68 118,-131 280,-140z"/>
   <path class="fil0 str0" d="M936 2525c125,-7 291,38 307,106 9,42 10,64 12,79 8,68 -118,131 -280,140 -162,9 -288,-41 -307,-106 -6,-19 -12,-56 -12,-79 0,-71 162,-133 280,-140z"/>
   <path class="fil72 str0" d="M936 2525c162,-9 299,38 307,106 8,68 -118,131 -280,140 -162,9 -299,-38 -307,-106 -8,-68 118,-131 280,-140z"/>
   <path class="fil73 str0" d="M1366 2846c162,-9 299,38 307,106 8,68 -118,131 -280,140 -162,9 -299,-38 -307,-106 -8,-68 118,-131 280,-140z"/>
   <path class="fil74 str0" d="M1898 2828c162,-9 299,38 307,106 8,68 -118,131 -280,140 -162,9 -299,-38 -307,-106 -8,-68 118,-131 280,-140z"/>
   <path class="fil0 str0" d="M1074 2735c125,-7 291,38 307,106 9,42 10,64 12,79 8,68 -118,131 -280,140 -162,9 -288,-41 -307,-106 -6,-19 -12,-56 -12,-79 0,-71 162,-133 280,-140z"/>
   <path class="fil75 str0" d="M1074 2735c162,-9 299,38 307,106 8,68 -118,131 -280,140 -162,9 -299,-38 -307,-106 -8,-68 118,-131 280,-140z"/>
   <path class="fil7 str0" d="M778 2752c125,-7 292,38 307,106 9,42 10,64 12,79 8,68 -118,131 -280,140 -162,9 -288,-41 -307,-106 -6,-19 -12,-56 -12,-79 0,-71 162,-133 280,-140z"/>
   <path class="fil76 str0" d="M778 2752c162,-9 299,38 307,106 8,68 -118,131 -280,140 -162,9 -299,-38 -307,-106 -8,-68 118,-131 280,-140z"/>
   <path class="fil7 str0" d="M1925 2588c125,-7 291,38 307,106 9,42 10,64 12,79 8,68 -118,131 -280,140 -162,9 -288,-41 -307,-106 -6,-19 -12,-56 -12,-79 0,-71 162,-133 280,-140z"/>
   <path class="fil77 str0" d="M1925 2588c162,-9 299,38 307,106 8,68 -118,131 -280,140 -162,9 -299,-38 -307,-106 -8,-68 118,-131 280,-140z"/>
   <path class="fil0 str0" d="M2390 1960c125,-7 291,38 307,106 9,42 10,64 12,79 8,68 -118,131 -280,140 -162,9 -288,-41 -307,-106 -6,-19 -12,-56 -12,-79 0,-71 162,-133 280,-140z"/>
   <path class="fil78 str0" d="M2390 1960c162,-9 299,38 307,106 8,68 -118,131 -280,140 -162,9 -299,-38 -307,-106 -8,-68 118,-131 280,-140z"/>
   <path class="fil0 str0" d="M2298 2089c125,-7 291,38 307,106 9,42 10,64 12,79 8,68 -118,131 -280,140 -162,9 -288,-41 -307,-106 -6,-19 -12,-56 -12,-79 0,-71 162,-133 280,-140z"/>
   <path class="fil79 str0" d="M2298 2089c162,-9 299,38 307,106 8,68 -118,131 -280,140 -162,9 -299,-38 -307,-106 -8,-68 118,-131 280,-140z"/>
   <path class="fil0 str0" d="M2645 2348c125,-7 291,38 307,106 9,42 10,64 12,79 8,68 -118,131 -280,140 -162,9 -288,-41 -307,-106 -6,-19 -12,-56 -12,-79 0,-71 162,-133 280,-140z"/>
   <path class="fil80 str0" d="M2645 2348c162,-9 299,38 307,106 8,68 -118,131 -280,140 -162,9 -299,-38 -307,-106 -8,-68 118,-131 280,-140z"/>
   <path class="fil0 str0" d="M2102 2279c125,-7 291,38 307,106 9,42 10,64 12,79 8,68 -118,131 -280,140 -162,9 -288,-41 -307,-106 -6,-19 -12,-56 -12,-79 0,-71 162,-133 280,-140z"/>
   <path class="fil81 str0" d="M2102 2279c162,-9 299,38 307,106 8,68 -118,131 -280,140 -162,9 -299,-38 -307,-106 -8,-68 118,-131 280,-140z"/>
   <path class="fil0 str0" d="M1847 2135c125,-7 291,38 307,106 9,42 10,64 12,79 8,68 -118,131 -280,140 -162,9 -288,-41 -307,-106 -6,-19 -12,-56 -12,-79 0,-71 162,-133 280,-140z"/>
   <path class="fil82 str0" d="M1847 2135c162,-9 299,38 307,106 8,68 -118,131 -280,140 -162,9 -299,-38 -307,-106 -8,-68 118,-131 280,-140z"/>
   <path class="fil7 str0" d="M2776 2107c125,-7 291,38 307,106 9,42 10,64 12,79 8,68 -118,131 -280,140 -162,9 -288,-41 -307,-106 -6,-19 -12,-56 -12,-79 0,-71 162,-133 280,-140z"/>
   <path class="fil83 str0" d="M2776 2107c162,-9 299,38 307,106 8,68 -118,131 -280,140 -162,9 -299,-38 -307,-106 -8,-68 118,-131 280,-140z"/>
   <path class="fil0 str0" d="M1607 2357c125,-7 291,38 307,106 9,42 10,64 12,79 8,68 -118,131 -280,140 -162,9 -288,-41 -307,-106 -6,-19 -12,-56 -12,-79 0,-71 162,-133 280,-140z"/>
   <path class="fil84 str0" d="M1607 2357c162,-9 299,38 307,106 8,68 -118,131 -280,140 -162,9 -299,-38 -307,-106 -8,-68 118,-131 280,-140z"/>
   <path class="fil7 str0" d="M1903 2031c97,-79 259,-140 311,-93 32,29 45,46 56,58 46,51 -19,175 -145,277 -126,102 -257,135 -311,93 -16,-12 -42,-39 -56,-58 -42,-57 53,-203 145,-277z"/>
   <path class="fil85 str0" d="M1903 2031c126,-102 265,-144 311,-93 46,51 -19,175 -145,277 -126,102 -265,144 -311,93 -46,-51 19,-175 145,-277z"/>
   <path class="fil0 str0" d="M1319 2097c125,-7 291,38 307,106 9,42 10,64 12,79 8,68 -118,131 -280,140 -162,9 -288,-41 -307,-106 -6,-19 -12,-56 -12,-79 0,-71 162,-133 280,-140z"/>
   <path class="fil86 str0" d="M1319 2097c162,-9 299,38 307,106 8,68 -118,131 -280,140 -162,9 -299,-38 -307,-106 -8,-68 118,-131 280,-140z"/>
   <path class="fil0 str0" d="M2181 2611c125,-7 291,38 307,106 9,42 10,64 12,79 8,68 -118,131 -280,140 -162,9 -288,-41 -307,-106 -6,-19 -12,-56 -12,-79 0,-71 162,-133 280,-140z"/>
   <path class="fil87 str0" d="M2181 2611c162,-9 299,38 307,106 8,68 -118,131 -280,140 -162,9 -299,-38 -307,-106 -8,-68 118,-131 280,-140z"/>
   <path class="fil0 str0" d="M1750 2418c125,-7 292,38 307,106 9,42 10,64 12,79 8,68 -118,131 -280,140 -162,9 -288,-41 -307,-106 -6,-19 -12,-56 -12,-79 0,-71 162,-133 280,-140z"/>
   <path class="fil88 str0" d="M1750 2418c162,-9 299,38 307,106 8,68 -118,131 -280,140 -162,9 -299,-38 -307,-106 -8,-68 118,-131 280,-140z"/>
   <path class="fil0 str0" d="M1341 2556c125,-7 291,38 307,106 9,42 10,64 12,79 8,68 -118,131 -280,140 -162,9 -288,-41 -307,-106 -6,-19 -12,-56 -12,-79 0,-71 162,-133 280,-140z"/>
   <path class="fil89 str0" d="M1341 2556c162,-9 299,38 307,106 8,68 -118,131 -280,140 -162,9 -299,-38 -307,-106 -8,-68 118,-131 280,-140z"/>
   <path class="fil0 str0" d="M2281 2400c125,-7 291,38 307,106 9,42 10,64 12,79 8,68 -118,131 -280,140 -162,9 -288,-41 -307,-106 -6,-19 -12,-56 -12,-79 0,-71 162,-133 280,-140z"/>
   <path class="fil90 str0" d="M2281 2400c162,-9 299,38 307,106 8,68 -118,131 -280,140 -162,9 -299,-38 -307,-106 -8,-68 118,-131 280,-140z"/>
   <path class="fil7 str0" d="M2563 2594c125,-7 291,38 307,106 9,42 10,64 12,79 8,68 -118,131 -280,140 -162,9 -288,-41 -307,-106 -6,-19 -12,-56 -12,-79 0,-71 162,-133 280,-140z"/>
   <path class="fil91 str0" d="M2563 2594c162,-9 299,38 307,106 8,68 -118,131 -280,140 -162,9 -299,-38 -307,-106 -8,-68 118,-131 280,-140z"/>
   <path class="fil0 str0" d="M2512 2424c125,-7 291,38 307,106 9,42 10,64 12,79 8,68 -118,131 -280,140 -162,9 -288,-41 -307,-106 -6,-19 -12,-56 -12,-79 0,-71 162,-133 280,-140z"/>
   <path class="fil92 str0" d="M2512 2424c162,-9 299,38 307,106 8,68 -118,131 -280,140 -162,9 -299,-38 -307,-106 -8,-68 118,-131 280,-140z"/>
   <path class="fil0 str0" d="M1457 2307c125,-7 291,38 307,106 9,42 10,64 12,79 8,68 -118,131 -280,140 -162,9 -288,-41 -307,-106 -6,-19 -12,-56 -12,-79 0,-71 162,-133 280,-140z"/>
   <path class="fil93 str0" d="M1457 2307c162,-9 299,38 307,106 8,68 -118,131 -280,140 -162,9 -299,-38 -307,-106 -8,-68 118,-131 280,-140z"/>
   <path class="fil7 str0" d="M1114 2337c117,-44 290,-50 325,11 21,37 28,58 35,72 27,63 -74,160 -225,217 -152,57 -287,47 -325,-11 -11,-17 -28,-50 -35,-72 -21,-67 115,-175 225,-217z"/>
   <path class="fil94 str0" d="M1114 2337c152,-57 297,-52 325,11 27,63 -74,160 -225,217 -152,57 -297,52 -325,-11 -27,-63 74,-160 225,-217z"/>
   <path class="fil7 str0" d="M2309 2161c125,-7 291,38 307,106 9,42 10,64 12,79 8,68 -118,131 -280,140 -162,9 -288,-41 -307,-106 -6,-19 -12,-56 -12,-79 0,-71 162,-133 280,-140z"/>
   <path class="fil95 str0" d="M2309 2161c162,-9 299,38 307,106 8,68 -118,131 -280,140 -162,9 -299,-38 -307,-106 -8,-68 118,-131 280,-140z"/>
   <path class="fil0 str0" d="M2916 2489c125,-7 292,38 307,106 9,42 10,64 12,79 8,68 -118,131 -280,140 -162,9 -288,-41 -307,-106 -6,-19 -12,-56 -12,-79 0,-71 162,-133 280,-140z"/>
   <path class="fil96 str0" d="M2916 2489c162,-9 299,38 307,106 8,68 -118,131 -280,140 -162,9 -299,-38 -307,-106 -8,-68 118,-131 280,-140z"/>
   <g id="_234539776">
    <polygon class="fil97 str2" points="2229,5205 2436,5298 2644,5390 2704,5310 2765,5229 2618,5056 2470,4882 2263,4790 2055,4697 1995,4778 1934,4858 2081,5032 "/>
    <polygon class="fil98 str2" points="1937,4862 2231,5208 2052,5475 1681,5039 "/>
    <polygon class="fil99 str2" points="2058,4705 1937,4866 1681,5043 1833,4840 "/>
    <polygon class="fil100 str2" points="2228,5203 2635,5383 2571,5702 2049,5469 "/>
    <polygon class="fil101 str2" points="2632,5375 2762,5219 2720,5491 2568,5694 "/>
    <path class="fil102 str2" d="M1688 5041l370 436c-84,104 -84,104 -167,208l-203 -644z"/>
    <polygon class="fil103 str2" points="2054,5473 2576,5706 1887,5681 "/>
   </g>
   <path class="fil7 str0" d="M1563 2779c117,-43 290,-48 324,13 21,37 28,58 34,73 27,63 -75,159 -227,215 -152,56 -287,44 -324,-13 -11,-17 -27,-51 -34,-73 -21,-68 116,-175 227,-215z"/>
   <path class="fil104 str0" d="M1563 2779c152,-56 298,-50 324,13 27,63 -75,159 -227,215 -152,56 -298,50 -324,-13 -27,-63 75,-159 227,-215z"/>
   <path class="fil7 str0" d="M2204 2529c125,-3 290,47 303,116 8,42 8,64 9,80 5,68 -122,127 -284,131 -162,4 -286,-50 -303,-116 -5,-19 -10,-57 -9,-80 2,-71 166,-128 284,-131z"/>
   <path class="fil105 str0" d="M2204 2529c162,-4 298,48 303,116 5,68 -122,127 -284,131 -162,4 -298,-48 -303,-116 -5,-68 122,-127 284,-131z"/>
   <path class="fil7 str0" d="M2707 2808c125,-3 290,47 303,116 8,42 8,64 9,80 5,68 -122,127 -284,131 -162,4 -286,-50 -303,-116 -5,-19 -10,-57 -9,-80 2,-71 166,-128 284,-131z"/>
   <path class="fil106 str0" d="M2707 2808c162,-4 298,48 303,116 5,68 -122,127 -284,131 -162,4 -298,-48 -303,-116 -5,-68 122,-127 284,-131z"/>
   <path class="fil7 str0" d="M2086 2790c125,-3 290,47 303,116 8,42 8,64 9,80 5,68 -122,127 -284,131 -162,4 -286,-50 -303,-116 -5,-19 -10,-57 -9,-80 2,-71 166,-128 284,-131z"/>
   <path class="fil107 str0" d="M2086 2790c162,-4 298,48 303,116 5,68 -122,127 -284,131 -162,4 -298,-48 -303,-116 -5,-68 122,-127 284,-131z"/>
   <path class="fil7 str0" d="M2786 2981c125,-3 290,47 303,116 8,42 8,64 9,80 5,68 -122,127 -284,131 -162,4 -286,-50 -303,-116 -5,-19 -10,-57 -9,-80 2,-71 166,-128 284,-131z"/>
   <path class="fil108 str0" d="M2786 2981c162,-4 298,48 303,116 5,68 -122,127 -284,131 -162,4 -298,-48 -303,-116 -5,-68 122,-127 284,-131z"/>
   <path class="fil7 str0" d="M2298 2887c125,-3 290,47 303,116 8,42 8,64 9,80 5,68 -122,127 -284,131 -162,4 -286,-50 -303,-116 -5,-19 -10,-57 -9,-80 2,-71 166,-128 284,-131z"/>
   <path class="fil109 str0" d="M2298 2887c162,-4 298,48 303,116 5,68 -122,127 -284,131 -162,4 -298,-48 -303,-116 -5,-68 122,-127 284,-131z"/>
   <path class="fil7 str0" d="M1260 5386c125,-7 292,38 307,106 9,42 10,64 12,79 8,68 -118,131 -280,140 -162,9 -288,-41 -307,-106 -6,-19 -12,-56 -12,-79 0,-71 162,-133 280,-140z"/>
   <path class="fil110 str0" d="M1260 5386c162,-9 299,38 307,106 8,68 -118,131 -280,140 -162,9 -299,-38 -307,-106 -8,-68 118,-131 280,-140z"/>
   <path class="fil7 str0" d="M1450 5270c125,-7 292,38 307,106 9,42 10,64 12,79 8,68 -118,131 -280,140 -162,9 -288,-41 -307,-106 -6,-19 -12,-56 -12,-79 0,-71 162,-133 280,-140z"/>
   <path class="fil111 str0" d="M1450 5270c162,-9 299,38 307,106 8,68 -118,131 -280,140 -162,9 -299,-38 -307,-106 -8,-68 118,-131 280,-140z"/>
   <path class="fil7 str0" d="M2071 5549c125,-7 292,38 307,106 9,42 10,64 12,79 8,68 -118,131 -280,140 -162,9 -288,-41 -307,-106 -6,-19 -12,-56 -12,-79 0,-71 162,-133 280,-140z"/>
   <path class="fil112 str0" d="M2071 5549c162,-9 299,38 307,106 8,68 -118,131 -280,140 -162,9 -299,-38 -307,-106 -8,-68 118,-131 280,-140z"/>
  </g>
 </g>
</svg>
